<mxfile host="app.diagrams.net" modified="2023-02-04T22:43:17.841Z" agent="5.0 (Windows NT 10.0; Win64; x64) AppleWebKit/537.36 (KHTML, like Gecko) Chrome/109.0.0.0 Safari/537.36" etag="FMjSJL7mrI0znaMDcUpB" version="20.8.16" type="github">
  <diagram name="Page-1" id="CoOixJTdj2g3juos5qL_">
    <mxGraphModel dx="1434" dy="796" grid="1" gridSize="10" guides="1" tooltips="1" connect="1" arrows="1" fold="1" page="1" pageScale="1" pageWidth="850" pageHeight="1100" math="0" shadow="0">
      <root>
        <mxCell id="0" />
        <mxCell id="1" parent="0" />
        <mxCell id="czSIjbhly4B8HzWEjZzq-1" value="Start" style="rounded=1;whiteSpace=wrap;html=1;" parent="1" vertex="1">
          <mxGeometry x="260" y="30" width="120" height="60" as="geometry" />
        </mxCell>
        <mxCell id="czSIjbhly4B8HzWEjZzq-2" value="Pizza type" style="rhombus;whiteSpace=wrap;html=1;" parent="1" vertex="1">
          <mxGeometry x="260" y="138" width="120" height="80" as="geometry" />
        </mxCell>
        <mxCell id="czSIjbhly4B8HzWEjZzq-4" value="" style="endArrow=classic;html=1;rounded=0;exitX=0.5;exitY=1;exitDx=0;exitDy=0;entryX=0.5;entryY=0;entryDx=0;entryDy=0;" parent="1" source="czSIjbhly4B8HzWEjZzq-1" target="czSIjbhly4B8HzWEjZzq-2" edge="1">
          <mxGeometry width="50" height="50" relative="1" as="geometry">
            <mxPoint x="310" y="150" as="sourcePoint" />
            <mxPoint x="360" y="100" as="targetPoint" />
          </mxGeometry>
        </mxCell>
        <mxCell id="czSIjbhly4B8HzWEjZzq-5" value="" style="endArrow=classic;html=1;rounded=0;exitX=0;exitY=0.5;exitDx=0;exitDy=0;" parent="1" source="czSIjbhly4B8HzWEjZzq-2" edge="1">
          <mxGeometry width="50" height="50" relative="1" as="geometry">
            <mxPoint x="410" y="240" as="sourcePoint" />
            <mxPoint x="160" y="240" as="targetPoint" />
            <Array as="points">
              <mxPoint x="160" y="178" />
            </Array>
          </mxGeometry>
        </mxCell>
        <mxCell id="czSIjbhly4B8HzWEjZzq-6" value="Small" style="text;html=1;strokeColor=none;fillColor=none;align=center;verticalAlign=middle;whiteSpace=wrap;rounded=0;" parent="1" vertex="1">
          <mxGeometry x="170" y="150" width="90" height="30" as="geometry" />
        </mxCell>
        <mxCell id="czSIjbhly4B8HzWEjZzq-7" value="" style="endArrow=classic;html=1;rounded=0;exitX=0;exitY=1;exitDx=0;exitDy=0;startArrow=none;" parent="1" source="czSIjbhly4B8HzWEjZzq-13" edge="1">
          <mxGeometry width="50" height="50" relative="1" as="geometry">
            <mxPoint x="380" y="180" as="sourcePoint" />
            <mxPoint x="480" y="240" as="targetPoint" />
            <Array as="points">
              <mxPoint x="480" y="180" />
            </Array>
          </mxGeometry>
        </mxCell>
        <mxCell id="czSIjbhly4B8HzWEjZzq-8" value="Medium" style="text;html=1;strokeColor=none;fillColor=none;align=center;verticalAlign=middle;whiteSpace=wrap;rounded=0;" parent="1" vertex="1">
          <mxGeometry x="300" y="210" width="90" height="30" as="geometry" />
        </mxCell>
        <mxCell id="czSIjbhly4B8HzWEjZzq-9" value="" style="endArrow=classic;html=1;rounded=0;exitX=0.5;exitY=1;exitDx=0;exitDy=0;" parent="1" edge="1">
          <mxGeometry width="50" height="50" relative="1" as="geometry">
            <mxPoint x="319.66" y="218" as="sourcePoint" />
            <mxPoint x="320" y="240" as="targetPoint" />
            <Array as="points" />
          </mxGeometry>
        </mxCell>
        <mxCell id="czSIjbhly4B8HzWEjZzq-10" value="$ 15" style="rounded=1;whiteSpace=wrap;html=1;" parent="1" vertex="1">
          <mxGeometry x="120" y="240" width="90" height="40" as="geometry" />
        </mxCell>
        <mxCell id="czSIjbhly4B8HzWEjZzq-11" value="$ 20" style="rounded=1;whiteSpace=wrap;html=1;" parent="1" vertex="1">
          <mxGeometry x="275" y="240" width="90" height="40" as="geometry" />
        </mxCell>
        <mxCell id="czSIjbhly4B8HzWEjZzq-12" value="$ 25" style="rounded=1;whiteSpace=wrap;html=1;" parent="1" vertex="1">
          <mxGeometry x="430" y="240" width="90" height="40" as="geometry" />
        </mxCell>
        <mxCell id="czSIjbhly4B8HzWEjZzq-14" value="" style="endArrow=none;html=1;rounded=0;exitX=0;exitY=0.5;exitDx=0;exitDy=0;" parent="1" target="czSIjbhly4B8HzWEjZzq-13" edge="1">
          <mxGeometry width="50" height="50" relative="1" as="geometry">
            <mxPoint x="380" y="180" as="sourcePoint" />
            <mxPoint x="480" y="240" as="targetPoint" />
            <Array as="points" />
          </mxGeometry>
        </mxCell>
        <mxCell id="czSIjbhly4B8HzWEjZzq-13" value="Large" style="text;html=1;strokeColor=none;fillColor=none;align=center;verticalAlign=middle;whiteSpace=wrap;rounded=0;" parent="1" vertex="1">
          <mxGeometry x="380" y="150" width="90" height="30" as="geometry" />
        </mxCell>
        <mxCell id="czSIjbhly4B8HzWEjZzq-15" value="" style="endArrow=classic;html=1;rounded=0;" parent="1" edge="1">
          <mxGeometry width="50" height="50" relative="1" as="geometry">
            <mxPoint x="160" y="280" as="sourcePoint" />
            <mxPoint x="160" y="310" as="targetPoint" />
          </mxGeometry>
        </mxCell>
        <mxCell id="czSIjbhly4B8HzWEjZzq-18" value="" style="edgeStyle=orthogonalEdgeStyle;rounded=0;orthogonalLoop=1;jettySize=auto;html=1;" parent="1" source="czSIjbhly4B8HzWEjZzq-16" edge="1">
          <mxGeometry relative="1" as="geometry">
            <mxPoint x="160" y="440.0000000000001" as="targetPoint" />
          </mxGeometry>
        </mxCell>
        <mxCell id="czSIjbhly4B8HzWEjZzq-16" value="Pepperoni" style="rhombus;whiteSpace=wrap;html=1;" parent="1" vertex="1">
          <mxGeometry x="120" y="310" width="80" height="80" as="geometry" />
        </mxCell>
        <mxCell id="czSIjbhly4B8HzWEjZzq-19" value="Yes" style="text;html=1;strokeColor=none;fillColor=none;align=center;verticalAlign=middle;whiteSpace=wrap;rounded=0;" parent="1" vertex="1">
          <mxGeometry x="150" y="390" width="60" height="30" as="geometry" />
        </mxCell>
        <mxCell id="czSIjbhly4B8HzWEjZzq-20" value="" style="endArrow=classic;html=1;rounded=0;startArrow=none;entryX=0;entryY=0;entryDx=0;entryDy=0;" parent="1" source="czSIjbhly4B8HzWEjZzq-21" target="czSIjbhly4B8HzWEjZzq-34" edge="1">
          <mxGeometry width="50" height="50" relative="1" as="geometry">
            <mxPoint x="120" y="350" as="sourcePoint" />
            <mxPoint x="70" y="440" as="targetPoint" />
            <Array as="points">
              <mxPoint x="120" y="350" />
              <mxPoint x="80" y="350" />
              <mxPoint x="80" y="520" />
              <mxPoint x="80" y="580" />
              <mxPoint x="130" y="580" />
            </Array>
          </mxGeometry>
        </mxCell>
        <mxCell id="czSIjbhly4B8HzWEjZzq-22" value="" style="endArrow=none;html=1;rounded=0;" parent="1" target="czSIjbhly4B8HzWEjZzq-21" edge="1">
          <mxGeometry width="50" height="50" relative="1" as="geometry">
            <mxPoint x="120" y="350.0000000000001" as="sourcePoint" />
            <mxPoint x="70" y="440.0000000000001" as="targetPoint" />
            <Array as="points" />
          </mxGeometry>
        </mxCell>
        <mxCell id="czSIjbhly4B8HzWEjZzq-21" value="No" style="text;html=1;strokeColor=none;fillColor=none;align=center;verticalAlign=middle;whiteSpace=wrap;rounded=0;" parent="1" vertex="1">
          <mxGeometry x="70" y="320" width="60" height="30" as="geometry" />
        </mxCell>
        <mxCell id="czSIjbhly4B8HzWEjZzq-23" value="$ 2" style="rounded=1;whiteSpace=wrap;html=1;" parent="1" vertex="1">
          <mxGeometry x="115" y="440" width="90" height="40" as="geometry" />
        </mxCell>
        <mxCell id="czSIjbhly4B8HzWEjZzq-25" value="Pepperoni" style="rhombus;whiteSpace=wrap;html=1;" parent="1" vertex="1">
          <mxGeometry x="360" y="310" width="80" height="80" as="geometry" />
        </mxCell>
        <mxCell id="czSIjbhly4B8HzWEjZzq-26" value="" style="endArrow=classic;html=1;rounded=0;exitX=0.5;exitY=1;exitDx=0;exitDy=0;entryX=1;entryY=0;entryDx=0;entryDy=0;" parent="1" source="czSIjbhly4B8HzWEjZzq-12" target="czSIjbhly4B8HzWEjZzq-25" edge="1">
          <mxGeometry width="50" height="50" relative="1" as="geometry">
            <mxPoint x="410" y="350" as="sourcePoint" />
            <mxPoint x="460" y="300" as="targetPoint" />
            <Array as="points">
              <mxPoint x="475" y="300" />
              <mxPoint x="420" y="300" />
            </Array>
          </mxGeometry>
        </mxCell>
        <mxCell id="czSIjbhly4B8HzWEjZzq-27" value="" style="endArrow=classic;html=1;rounded=0;exitX=0.5;exitY=1;exitDx=0;exitDy=0;" parent="1" source="czSIjbhly4B8HzWEjZzq-11" edge="1">
          <mxGeometry width="50" height="50" relative="1" as="geometry">
            <mxPoint x="443.57" y="290.0000000000001" as="sourcePoint" />
            <mxPoint x="379.99857142857155" y="331.42857142857156" as="targetPoint" />
            <Array as="points">
              <mxPoint x="320" y="300" />
              <mxPoint x="380" y="300" />
            </Array>
          </mxGeometry>
        </mxCell>
        <mxCell id="czSIjbhly4B8HzWEjZzq-28" value="" style="edgeStyle=orthogonalEdgeStyle;rounded=0;orthogonalLoop=1;jettySize=auto;html=1;" parent="1" source="czSIjbhly4B8HzWEjZzq-25" edge="1">
          <mxGeometry relative="1" as="geometry">
            <mxPoint x="485" y="350.0000000000001" as="sourcePoint" />
            <mxPoint x="485" y="400.0000000000001" as="targetPoint" />
          </mxGeometry>
        </mxCell>
        <mxCell id="czSIjbhly4B8HzWEjZzq-29" value="Yes" style="text;html=1;strokeColor=none;fillColor=none;align=center;verticalAlign=middle;whiteSpace=wrap;rounded=0;" parent="1" vertex="1">
          <mxGeometry x="430" y="330" width="60" height="30" as="geometry" />
        </mxCell>
        <mxCell id="czSIjbhly4B8HzWEjZzq-30" value="$ 3" style="rounded=1;whiteSpace=wrap;html=1;" parent="1" vertex="1">
          <mxGeometry x="440" y="400" width="90" height="40" as="geometry" />
        </mxCell>
        <mxCell id="czSIjbhly4B8HzWEjZzq-31" value="" style="endArrow=classic;html=1;rounded=0;startArrow=none;entryX=0.5;entryY=0;entryDx=0;entryDy=0;exitX=1;exitY=1;exitDx=0;exitDy=0;" parent="1" source="czSIjbhly4B8HzWEjZzq-32" target="czSIjbhly4B8HzWEjZzq-34" edge="1">
          <mxGeometry width="50" height="50" relative="1" as="geometry">
            <mxPoint x="355" y="350" as="sourcePoint" />
            <mxPoint x="305" y="440.0000000000001" as="targetPoint" />
            <Array as="points">
              <mxPoint x="280" y="350" />
            </Array>
          </mxGeometry>
        </mxCell>
        <mxCell id="czSIjbhly4B8HzWEjZzq-32" value="No" style="text;html=1;strokeColor=none;fillColor=none;align=center;verticalAlign=middle;whiteSpace=wrap;rounded=0;" parent="1" vertex="1">
          <mxGeometry x="305" y="320" width="60" height="30" as="geometry" />
        </mxCell>
        <mxCell id="czSIjbhly4B8HzWEjZzq-33" value="" style="edgeStyle=orthogonalEdgeStyle;rounded=0;orthogonalLoop=1;jettySize=auto;html=1;entryX=0;entryY=0;entryDx=0;entryDy=0;" parent="1" target="czSIjbhly4B8HzWEjZzq-34" edge="1">
          <mxGeometry relative="1" as="geometry">
            <mxPoint x="159.66" y="480.0000000000001" as="sourcePoint" />
            <mxPoint x="159.66" y="530.0000000000001" as="targetPoint" />
            <Array as="points">
              <mxPoint x="160" y="530" />
              <mxPoint x="260" y="530" />
            </Array>
          </mxGeometry>
        </mxCell>
        <mxCell id="czSIjbhly4B8HzWEjZzq-38" value="" style="edgeStyle=orthogonalEdgeStyle;rounded=0;orthogonalLoop=1;jettySize=auto;html=1;" parent="1" source="czSIjbhly4B8HzWEjZzq-34" edge="1">
          <mxGeometry relative="1" as="geometry">
            <mxPoint x="400" y="640" as="targetPoint" />
            <Array as="points">
              <mxPoint x="400" y="600" />
            </Array>
          </mxGeometry>
        </mxCell>
        <mxCell id="czSIjbhly4B8HzWEjZzq-34" value="Extra cheese" style="rhombus;whiteSpace=wrap;html=1;" parent="1" vertex="1">
          <mxGeometry x="240" y="560" width="80" height="80" as="geometry" />
        </mxCell>
        <mxCell id="czSIjbhly4B8HzWEjZzq-35" value="" style="edgeStyle=orthogonalEdgeStyle;rounded=0;orthogonalLoop=1;jettySize=auto;html=1;entryX=1;entryY=0;entryDx=0;entryDy=0;" parent="1" target="czSIjbhly4B8HzWEjZzq-34" edge="1">
          <mxGeometry relative="1" as="geometry">
            <mxPoint x="484.6600000000001" y="440" as="sourcePoint" />
            <mxPoint x="484.6600000000001" y="490" as="targetPoint" />
            <Array as="points">
              <mxPoint x="485" y="520" />
              <mxPoint x="300" y="520" />
            </Array>
          </mxGeometry>
        </mxCell>
        <mxCell id="czSIjbhly4B8HzWEjZzq-39" value="Yes" style="text;html=1;strokeColor=none;fillColor=none;align=center;verticalAlign=middle;whiteSpace=wrap;rounded=0;" parent="1" vertex="1">
          <mxGeometry x="320" y="570" width="60" height="30" as="geometry" />
        </mxCell>
        <mxCell id="czSIjbhly4B8HzWEjZzq-41" value="No" style="text;html=1;strokeColor=none;fillColor=none;align=center;verticalAlign=middle;whiteSpace=wrap;rounded=0;" parent="1" vertex="1">
          <mxGeometry x="230" y="650" width="60" height="30" as="geometry" />
        </mxCell>
        <mxCell id="czSIjbhly4B8HzWEjZzq-42" value="" style="edgeStyle=orthogonalEdgeStyle;rounded=0;orthogonalLoop=1;jettySize=auto;html=1;entryX=0.336;entryY=-0.059;entryDx=0;entryDy=0;entryPerimeter=0;" parent="1" target="czSIjbhly4B8HzWEjZzq-45" edge="1">
          <mxGeometry relative="1" as="geometry">
            <mxPoint x="279.65999999999997" y="640.0000000000001" as="sourcePoint" />
            <mxPoint x="279.65999999999997" y="690.0000000000001" as="targetPoint" />
          </mxGeometry>
        </mxCell>
        <mxCell id="czSIjbhly4B8HzWEjZzq-43" value="$ 1" style="rounded=1;whiteSpace=wrap;html=1;" parent="1" vertex="1">
          <mxGeometry x="355" y="640" width="90" height="40" as="geometry" />
        </mxCell>
        <mxCell id="czSIjbhly4B8HzWEjZzq-44" value="" style="edgeStyle=orthogonalEdgeStyle;rounded=0;orthogonalLoop=1;jettySize=auto;html=1;entryX=0.5;entryY=0;entryDx=0;entryDy=0;" parent="1" target="czSIjbhly4B8HzWEjZzq-45" edge="1">
          <mxGeometry relative="1" as="geometry">
            <mxPoint x="399.65999999999985" y="680" as="sourcePoint" />
            <mxPoint x="399.65999999999985" y="730" as="targetPoint" />
          </mxGeometry>
        </mxCell>
        <mxCell id="czSIjbhly4B8HzWEjZzq-45" value="The total bill is $ x" style="rounded=1;whiteSpace=wrap;html=1;" parent="1" vertex="1">
          <mxGeometry x="250" y="770" width="210" height="40" as="geometry" />
        </mxCell>
      </root>
    </mxGraphModel>
  </diagram>
</mxfile>
